<svg width="30" height="30" viewBox="0 0 30 30" fill="none" xmlns="http://www.w3.org/2000/svg">
<g clip-path="url(#clip0_56_1581)">
<path d="M15.2342 17.5984C15.5729 17.1315 15.9842 16.8895 16.2092 16.7807C15.3141 16.4589 14.5592 16.4057 14.0754 16.4105C13.3592 16.4177 12.8318 16.4226 12.4157 16.8073C11.8375 17.3371 11.8979 18.2032 11.9149 18.3919L9.14956 19.05L6.38424 19.7105C6.31407 19.5363 5.97778 18.7355 5.22295 18.5226C4.67859 18.3702 4.20682 18.6024 3.56569 18.9194C3.1302 19.1347 2.4794 19.5218 1.82617 20.2137C2.07537 20.2089 2.55198 20.2379 3.06488 20.504C3.78101 20.8742 4.11488 21.4718 4.22375 21.6919C4.12456 22.1298 3.58504 24.6847 5.19875 27.0242C6.30198 28.6258 7.98585 29.2258 8.57859 29.4387C9.30924 29.9661 10.4875 30.1548 11.7165 29.8621C12.9455 29.5694 13.9133 28.8653 14.3294 28.0669C14.7625 27.6073 15.9963 26.3129 16.26 24.3847C16.6471 21.5661 15.0189 19.529 14.7334 19.1831C14.7313 18.9363 14.7603 18.254 15.2342 17.5984ZM23.3514 27.3024C23.2837 27.7161 23.3466 28.3379 23.6369 28.4419C23.9756 28.5653 24.6046 27.9677 24.774 27.3024C24.9385 26.6516 24.624 26.0903 24.5103 25.9089C24.4958 25.904 24.4788 25.8968 24.4643 25.8919C24.2635 26.0008 23.4917 26.4557 23.3514 27.3024Z" fill="#E7F2F1"/>
<path d="M28.405 19.0669C28.7123 18.4113 28.7897 17.5742 28.4679 17.3298C28.3978 17.2766 28.1196 17.1073 27.2776 17.5766C27.0188 17.7218 26.6946 17.5863 26.6099 17.3057C26.4599 16.8073 26.2131 16.1927 25.9107 16.1903C25.497 16.1855 25.1365 17.3226 25.0567 18.1839L25.0494 18.2782C23.2639 18.6726 21.9309 20.2669 21.9309 22.1734C21.9309 23.8669 22.9809 25.3113 24.4639 25.8919C24.4736 25.8847 24.4809 25.8823 24.4881 25.8774C24.4929 25.8871 24.5002 25.8968 24.5099 25.9089C24.9454 26.0734 25.4171 26.1629 25.9107 26.1629C28.1075 26.1629 29.8905 24.3774 29.8905 22.1734C29.8905 20.9177 29.3123 19.7976 28.405 19.0669ZM5.21287 16.0113C7.13142 15.254 8.07254 13.0815 7.31529 11.1581C6.71287 9.62662 5.21529 8.72178 3.66206 8.79678C3.65238 8.72904 3.64271 8.66372 3.63061 8.59356C3.54833 8.18239 3.39349 7.78915 3.17335 7.43226C3.11529 7.56775 3.05722 7.70323 2.99674 7.8363C2.93867 7.97178 2.88061 8.10727 2.82255 8.24033C2.72577 8.1121 2.55884 7.92823 2.3048 7.77581C2.1548 7.6863 2.01448 7.63307 1.90077 7.5992C1.97093 7.99355 2.029 8.41936 2.06771 8.8742C2.0798 8.99517 2.08464 9.1113 2.0919 9.22743C0.434642 10.1057 -0.334713 12.1137 0.369319 13.904C1.12658 15.8274 3.29432 16.771 5.21287 16.0113ZM20.5615 13.6234C20.605 13.5557 20.6534 13.4903 20.7067 13.4274C21.3938 12.6024 22.3204 11.2403 22.8381 9.35081C23.126 8.30081 23.2204 7.31855 23.2179 6.4621C23.3583 6.74033 23.8905 7.73952 25.0639 8.10726C25.9083 8.37339 27.0357 8.29356 27.1688 7.88952C27.3212 7.42743 25.9809 7.13468 25.1631 5.57904C24.7107 4.72017 24.7736 4.15404 24.2099 3.79597C23.7067 3.47662 23.0897 3.53952 22.6349 3.66049C22.8212 3.34114 23.2155 2.5621 23.0389 1.59678C22.8841 0.740329 22.2962 -0.0701546 22.0059 0.00484537C21.7833 0.0604905 21.8873 0.590329 21.5341 1.34275C21.297 1.84355 20.9752 2.18226 20.7405 2.39759C19.9578 2.09626 19.1261 1.94207 18.2873 1.94275C18.2099 1.94275 18.1325 1.94517 18.055 1.94759C17.1913 1.97662 16.4365 2.16291 15.8075 2.40968C15.5752 2.19436 15.2534 1.84355 15.0163 1.34275C14.6631 0.590329 14.7647 0.0604905 14.5446 0.00484537C14.2518 -0.0701546 13.6663 0.740329 13.5091 1.59678C13.3325 2.5621 13.7413 3.36291 13.9276 3.68226C13.4728 3.5613 12.8413 3.47662 12.3381 3.79597C11.7744 4.15404 11.8397 4.72017 11.3873 5.57904C10.5671 7.13468 9.22924 7.42743 9.38166 7.88952C9.51472 8.29356 10.6421 8.37339 11.4865 8.10726C12.6599 7.73952 13.2188 6.72097 13.3591 6.44275C13.3542 7.22178 13.4317 8.10485 13.6615 9.04839C13.6857 9.14759 13.7123 9.2492 13.7389 9.35081C14.2567 11.2403 15.1833 12.6024 15.8704 13.4274C15.9236 13.4903 15.972 13.5557 16.0155 13.6234C16.1776 13.8702 16.2889 14.1508 16.3688 14.4387C16.6034 15.2807 17.3776 15.9048 18.2873 15.9048C19.1994 15.9048 19.9736 15.2807 20.2059 14.4387C20.2881 14.1508 20.3994 13.8702 20.5615 13.6234Z" fill="#E7F2F1"/>
<path d="M14.5083 26.8524C14.6051 27.2565 14.5325 27.6726 14.3293 28.0669C13.9131 28.8653 12.9454 29.5694 11.7164 29.8621C10.4873 30.1549 9.3091 29.9661 8.57845 29.4387C8.21797 29.1799 7.96635 28.8411 7.872 28.4371C7.58168 27.2129 8.83006 25.8653 10.6639 25.4274C12.4954 24.9895 14.218 25.6282 14.5083 26.8524Z" fill="#F48CA7"/>
<path d="M14.7334 19.1831C15.0189 19.529 16.6471 21.5661 16.26 24.3847C15.9963 26.3129 14.7625 27.6073 14.3294 28.0669C14.5326 27.6726 14.6052 27.2565 14.5084 26.8524C14.2181 25.6282 12.4955 24.9895 10.6641 25.4274C8.8302 25.8653 7.58182 27.2129 7.87214 28.4371C7.96649 28.8411 8.21811 29.1798 8.57859 29.4387C7.98585 29.2258 6.30198 28.6258 5.19875 27.0242C3.58504 24.6847 4.12456 22.1298 4.22375 21.6919C4.11488 21.4718 3.78101 20.8742 3.06488 20.504C2.55198 20.2379 2.07537 20.2089 1.82617 20.2137C2.4794 19.5218 3.1302 19.1347 3.56569 18.9194C4.20682 18.6024 4.67859 18.3702 5.22295 18.5226C5.97778 18.7355 6.31408 19.5363 6.38424 19.7105L9.14956 19.05L11.9149 18.3919C11.8979 18.2032 11.8375 17.3371 12.4157 16.8073C12.8318 16.4226 13.3592 16.4177 14.0754 16.4105C14.5592 16.4057 15.3141 16.4589 16.2092 16.7807C15.9842 16.8895 15.5729 17.1315 15.2342 17.5984C14.76 18.254 14.731 18.9363 14.7334 19.1831ZM14.1286 24.0145C14.4334 23.9419 14.6221 23.6347 14.5496 23.3274C14.5324 23.2547 14.501 23.1862 14.4573 23.1256C14.4136 23.0651 14.3583 23.0138 14.2947 22.9747C14.2311 22.9356 14.1603 22.9094 14.0866 22.8977C14.0128 22.886 13.9375 22.889 13.8649 22.9065C13.7921 22.9235 13.7234 22.9548 13.6627 22.9985C13.602 23.0421 13.5505 23.0974 13.5111 23.161C13.4718 23.2246 13.4454 23.2953 13.4335 23.3691C13.4215 23.4429 13.4242 23.5184 13.4415 23.5911C13.4765 23.7384 13.5686 23.8656 13.6974 23.945C13.8263 24.0244 13.9813 24.0494 14.1286 24.0145ZM6.93585 25.7298C7.24311 25.6573 7.43182 25.35 7.35682 25.0452C7.33986 24.9723 7.30866 24.9035 7.26502 24.8427C7.22138 24.782 7.16615 24.7304 7.10252 24.6911C7.03889 24.6517 6.96811 24.6254 6.89425 24.6135C6.82039 24.6016 6.74491 24.6044 6.67214 24.6218C6.3673 24.6944 6.17859 25.0016 6.25117 25.3089C6.32375 25.6137 6.63101 25.8024 6.93585 25.7298Z" fill="#FEC4B9"/>
<path d="M24.5099 25.9089C24.6236 26.0903 24.9381 26.6516 24.7736 27.3024C24.6043 27.9677 23.9752 28.5653 23.6365 28.4419C23.3462 28.3379 23.2833 27.7161 23.351 27.3024C23.4914 26.4556 24.2631 26.0008 24.4639 25.8919C24.4785 25.8968 24.4954 25.904 24.5099 25.9089ZM28.468 17.3298C28.7897 17.5742 28.7123 18.4113 28.4051 19.0669C28.2164 19.4734 27.9405 19.8097 27.6164 19.8944C27.2922 19.979 27.1083 19.7613 26.7623 19.8944C26.1502 20.129 26.1938 21.0121 25.9107 21.0339C25.5575 21.0605 24.9478 19.725 25.0494 18.2782L25.0567 18.1839C25.1365 17.3226 25.497 16.1855 25.9107 16.1903C26.2131 16.1927 26.4599 16.8073 26.6099 17.3056C26.6946 17.5863 27.0188 17.7218 27.2776 17.5766C28.1196 17.1073 28.3978 17.2766 28.468 17.3298Z" fill="#E15C63"/>
<path d="M25.3611 23.6032C25.9877 23.7847 26.2248 24.5589 25.8522 25.0935C25.3974 25.7444 24.807 26.0129 24.4877 25.8774C24.1732 25.7444 23.97 25.1395 24.0837 24.3871C24.1441 23.9855 24.4417 23.6468 24.8409 23.5766C25.0074 23.5469 25.1784 23.5544 25.3417 23.5984C25.3466 23.6008 25.3538 23.6032 25.3611 23.6032Z" fill="#FFC05A"/>
<path d="M27.6166 22.4589C27.9311 22.4589 28.1851 22.7129 28.1851 23.0298C28.1851 23.3444 27.9311 23.5984 27.6166 23.5984C27.3021 23.5984 27.048 23.3444 27.048 23.0298C27.0477 22.955 27.0622 22.8808 27.0906 22.8115C27.119 22.7423 27.1609 22.6793 27.2137 22.6263C27.2665 22.5732 27.3293 22.5311 27.3984 22.5024C27.4676 22.4737 27.5417 22.4589 27.6166 22.4589ZM23.6367 21.6048C23.9488 21.6048 24.2053 21.8589 24.2053 22.1734C24.2053 22.4879 23.9488 22.7444 23.6367 22.7444C23.4885 22.74 23.3478 22.6781 23.2445 22.5717C23.1411 22.4654 23.0834 22.3229 23.0834 22.1746C23.0834 22.0263 23.1411 21.8838 23.2445 21.7775C23.3478 21.6711 23.4885 21.6092 23.6367 21.6048ZM14.5496 23.3274C14.6222 23.6347 14.4335 23.9419 14.1287 24.0145C13.9814 24.0494 13.8263 24.0244 13.6975 23.945C13.5687 23.8656 13.4766 23.7384 13.4416 23.5911C13.4243 23.5184 13.4216 23.4429 13.4336 23.3691C13.4455 23.2953 13.4719 23.2246 13.5112 23.161C13.5506 23.0974 13.6021 23.0421 13.6628 22.9985C13.7235 22.9548 13.7922 22.9235 13.865 22.9065C14.1698 22.8315 14.4771 23.0226 14.5496 23.3274ZM7.35691 25.0452C7.43191 25.35 7.2432 25.6573 6.93594 25.7298C6.6311 25.8024 6.32384 25.6137 6.25126 25.3089C6.17868 25.0016 6.36739 24.6944 6.67223 24.6218C6.97949 24.5492 7.28433 24.7379 7.35691 25.0452ZM2.2857 12.4621C2.40183 12.7548 2.25908 13.0863 1.96634 13.2C1.6736 13.3161 1.34457 13.1734 1.22844 12.8807C1.17365 12.7398 1.17672 12.5829 1.23698 12.4443C1.29724 12.3056 1.40982 12.1964 1.55021 12.1403C1.84054 12.0242 2.17199 12.1694 2.2857 12.4621ZM5.98973 10.9984C6.10586 11.2911 5.9607 11.6202 5.67037 11.7363C5.37763 11.8524 5.04618 11.7097 4.93247 11.4169C4.90473 11.3475 4.89096 11.2732 4.89197 11.1984C4.89298 11.1236 4.90874 11.0497 4.93835 10.981C4.96796 10.9123 5.01084 10.8502 5.06452 10.7981C5.1182 10.746 5.18164 10.705 5.2512 10.6774C5.32075 10.6499 5.39505 10.6364 5.46985 10.6376C5.54465 10.6388 5.61847 10.6548 5.68707 10.6846C5.75568 10.7145 5.81773 10.7575 5.86967 10.8114C5.9216 10.8652 5.9624 10.9288 5.98973 10.9984Z" fill="#543927"/>
<path d="M6.56027 13.2218C6.70786 13.7177 5.66269 14.4968 4.75544 14.8548C3.8506 15.2129 2.55624 15.3581 2.32882 14.896C2.26592 14.7726 2.21753 14.4726 2.80786 13.7879C2.84097 13.4974 2.9523 13.2213 3.12997 12.9891C3.30764 12.7569 3.54499 12.5773 3.81673 12.4694C4.08826 12.3618 4.38394 12.3302 4.67206 12.378C4.96017 12.4257 5.22987 12.551 5.45221 12.7403C6.35221 12.8371 6.51915 13.0887 6.56027 13.2218Z" fill="#F49C60"/>
<path d="M7.31529 11.1581C8.07255 13.0815 7.13142 15.254 5.21287 16.0113C3.29432 16.771 1.12658 15.8274 0.369319 13.904C-0.334713 12.1137 0.434642 10.1057 2.0919 9.22743C2.08464 9.1113 2.0798 8.99517 2.06771 8.8742C2.029 8.41936 1.97093 7.99356 1.90077 7.5992C2.01448 7.63307 2.1548 7.6863 2.3048 7.77581C2.55884 7.92823 2.72577 8.11211 2.82255 8.24033C2.88061 8.10727 2.93867 7.97178 2.99674 7.8363C3.05722 7.70323 3.11529 7.56775 3.17335 7.43227C3.39349 7.78915 3.54833 8.18239 3.63061 8.59356C3.64271 8.66372 3.65238 8.72904 3.66206 8.79678C5.21529 8.72178 6.71287 9.62662 7.31529 11.1581ZM4.75561 14.8548C5.66287 14.4968 6.70803 13.7178 6.56045 13.2218C6.51932 13.0887 6.35238 12.8371 5.45238 12.7403C5.23004 12.551 4.96035 12.4257 4.67223 12.378C4.38411 12.3302 4.08843 12.3618 3.8169 12.4694C3.26529 12.6871 2.87577 13.1952 2.80803 13.7879C2.21771 14.4726 2.26609 14.7726 2.329 14.896C2.55642 15.3581 3.85077 15.2129 4.75561 14.8548ZM5.67013 11.7363C5.96045 11.6202 6.10561 11.2911 5.98948 10.9984C5.96215 10.9288 5.92135 10.8652 5.86942 10.8114C5.81748 10.7575 5.75543 10.7145 5.68683 10.6846C5.61822 10.6548 5.5444 10.6388 5.4696 10.6376C5.39481 10.6364 5.3205 10.6499 5.25095 10.6774C5.18139 10.705 5.11795 10.746 5.06427 10.7981C5.01059 10.8502 4.96771 10.9123 4.9381 10.981C4.9085 11.0497 4.89273 11.1236 4.89173 11.1984C4.89072 11.2732 4.90448 11.3475 4.93222 11.4169C5.04593 11.7097 5.37738 11.8524 5.67013 11.7363ZM1.96609 13.2C2.25884 13.0863 2.40158 12.7548 2.28545 12.4621C2.25848 12.3925 2.21802 12.329 2.16639 12.2751C2.11477 12.2213 2.053 12.1781 1.98464 12.1482C1.91629 12.1183 1.84269 12.1022 1.76809 12.1009C1.69349 12.0995 1.61936 12.1129 1.54996 12.1403C1.40957 12.1964 1.29699 12.3056 1.23673 12.4443C1.17647 12.5829 1.1734 12.7398 1.22819 12.8807C1.34432 13.1734 1.67335 13.3161 1.96609 13.2Z" fill="#F9B132"/>
<path d="M21.3213 6.38953C21.6334 6.38953 21.885 6.64114 21.885 6.95324C21.8872 7.02849 21.8743 7.10343 21.847 7.1736C21.8198 7.24378 21.7787 7.30777 21.7262 7.36178C21.6738 7.41579 21.611 7.45873 21.5417 7.48805C21.4723 7.51737 21.3978 7.53248 21.3225 7.53248C21.2472 7.53248 21.1727 7.51737 21.1034 7.48805C21.034 7.45873 20.9713 7.41579 20.9188 7.36178C20.8664 7.30777 20.8253 7.24378 20.798 7.1736C20.7707 7.10343 20.7578 7.02849 20.76 6.95324C20.76 6.64114 21.0116 6.38953 21.3213 6.38953ZM15.3528 6.38953C15.6624 6.38953 15.9141 6.64114 15.9141 6.95324C15.9141 7.10242 15.8548 7.24549 15.7493 7.35098C15.6438 7.45647 15.5007 7.51574 15.3516 7.51574C15.2024 7.51574 15.0593 7.45647 14.9538 7.35098C14.8483 7.24549 14.7891 7.10242 14.7891 6.95324C14.7891 6.64114 15.0407 6.38953 15.3528 6.38953Z" fill="#543927"/>
<path d="M20.5616 13.6234C20.3995 13.8702 20.2882 14.1508 20.2059 14.4387C19.9737 15.2807 19.1995 15.9048 18.2874 15.9048C17.3777 15.9048 16.6035 15.2807 16.3689 14.4387C16.289 14.1508 16.1777 13.8702 16.0156 13.6234C16.1051 13.5024 16.9035 12.4863 18.2874 12.4863C18.4301 12.4863 19.7245 12.5081 20.5616 13.6234Z" fill="#655F68"/>
<path d="M23.0389 1.59678C23.2156 2.5621 22.8212 3.34114 22.6349 3.66049C22.4341 3.37501 22.1728 3.13065 21.868 2.94678C21.5535 2.75807 21.176 2.56452 20.7406 2.39759C20.9752 2.18226 21.297 1.84355 21.5341 1.34275C21.8873 0.590329 21.7833 0.0604905 22.0059 0.00484537C22.2962 -0.0701546 22.8841 0.740329 23.0389 1.59678ZM15.0164 1.34275C15.2535 1.84355 15.5752 2.19436 15.8075 2.40968C15.3817 2.57178 15.0139 2.76291 14.7091 2.94678C14.3946 3.13549 14.1309 3.3871 13.9277 3.68226C13.7414 3.36291 13.3325 2.5621 13.5091 1.59678C13.6664 0.740329 14.2518 -0.0701546 14.5446 0.00484537C14.7647 0.0604905 14.6631 0.590329 15.0164 1.34275Z" fill="#B29576"/>
<path d="M25.1626 5.57904C25.9804 7.13468 27.3207 7.42743 27.1683 7.88952C27.0352 8.29356 25.9078 8.37339 25.0634 8.10726C23.8901 7.73952 23.3578 6.74033 23.2175 6.4621C23.2151 5.7992 23.1497 5.21372 23.0699 4.72017C23.0046 4.33307 22.8546 3.97259 22.6344 3.66049C23.0893 3.53952 23.7062 3.47662 24.2094 3.79597C24.7731 4.15404 24.7102 4.72017 25.1626 5.57904ZM20.7401 2.39759C21.1755 2.56452 21.553 2.75807 21.8675 2.94678C21.5554 3.95081 20.5005 4.54114 19.4893 4.27985C18.4707 4.01614 17.832 2.98065 18.0546 1.94759C18.132 1.94517 18.2094 1.94275 18.2868 1.94275C19.2352 1.94275 20.0602 2.1363 20.7401 2.39759ZM14.7086 2.94678C16.753 3.04839 18.1659 4.86533 17.9288 6.54436C17.682 8.28146 15.6957 9.65323 13.661 9.04839C13.4312 8.10485 13.3538 7.22178 13.3586 6.44275C13.3634 5.78952 13.4264 5.20888 13.5062 4.72017C13.5691 4.34275 13.7143 3.98952 13.9272 3.68227C14.1304 3.3871 14.3941 3.13549 14.7086 2.94678ZM15.9134 6.95323C15.9134 6.80405 15.8542 6.66097 15.7487 6.55548C15.6432 6.45 15.5001 6.39073 15.3509 6.39073C15.2018 6.39073 15.0587 6.45 14.9532 6.55548C14.8477 6.66097 14.7884 6.80405 14.7884 6.95323C14.7862 7.02849 14.7992 7.10342 14.8264 7.1736C14.8537 7.24377 14.8948 7.30776 14.9472 7.36177C14.9997 7.41579 15.0624 7.45872 15.1318 7.48805C15.2011 7.51737 15.2757 7.53247 15.3509 7.53247C15.4262 7.53247 15.5008 7.51737 15.5701 7.48805C15.6395 7.45872 15.7022 7.41579 15.7547 7.36177C15.8071 7.30776 15.8482 7.24377 15.8755 7.1736C15.9027 7.10342 15.9157 7.02849 15.9134 6.95323Z" fill="#655F68"/>
<path d="M13.9281 3.68227C13.7128 3.99292 13.5691 4.34737 13.5071 4.72017C13.4273 5.20888 13.3644 5.78953 13.3595 6.44275C13.2192 6.72098 12.6603 7.73953 11.4869 8.10727C10.6426 8.3734 9.51516 8.29356 9.38209 7.88953C9.22967 7.42743 10.5676 7.13469 11.3877 5.57904C11.8402 4.72017 11.7748 4.15404 12.3385 3.79598C12.8418 3.47662 13.4732 3.5613 13.9281 3.68227Z" fill="#D6EAE8"/>
<path d="M16.3691 14.4387C16.3691 14.4387 18.9579 15.4694 19.5482 12.7911C19.8966 12.9581 20.2595 13.2194 20.5619 13.6234C20.3998 13.8702 20.2885 14.1508 20.2062 14.4387C19.974 15.2807 19.1998 15.9048 18.2877 15.9048C17.378 15.9048 16.6038 15.2807 16.3691 14.4387Z" fill="#5D5560"/>
<path d="M23.218 6.4621C23.2204 7.31855 23.1261 8.30081 22.8382 9.35081C22.3204 11.2403 21.3938 12.6024 20.7067 13.4274C20.6535 13.4903 20.6051 13.5556 20.5616 13.6234C20.2964 13.2677 19.9484 12.982 19.5479 12.7911C19.5479 12.7911 23.5979 8.66855 21.868 2.94678C22.1729 3.13065 22.4341 3.375 22.6349 3.66049C22.8551 3.97258 23.0051 4.33307 23.0704 4.72016C23.1503 5.21371 23.2156 5.7992 23.218 6.4621ZM24.4882 25.8774C24.8075 26.0129 25.3979 25.7444 25.8527 25.0936C25.8527 25.0936 30.5099 24.5903 28.4051 19.0669C29.3124 19.7976 29.8906 20.9177 29.8906 22.1734C29.8906 24.3774 28.1075 26.1629 25.9108 26.1629C25.4172 26.1629 24.9454 26.0734 24.5099 25.9089C24.5016 25.8992 24.4943 25.8886 24.4882 25.8774Z" fill="#D6EAE8"/>
<path d="M12.4253 27.9266C13.618 27.1065 13.8576 25.8919 13.8576 25.8919C14.1866 26.1436 14.4188 26.4702 14.5084 26.8524C14.6051 27.2565 14.5326 27.6726 14.3293 28.0669C13.9132 28.8653 12.9455 29.5694 11.7164 29.8621C10.4874 30.1548 9.30917 29.9661 8.57852 29.4387C8.21804 29.1798 7.96643 28.8411 7.87207 28.4371C10.1172 28.9355 11.5374 28.5411 12.4253 27.9266Z" fill="#EA728C"/>
<path d="M14.7356 19.1879C15.0308 19.546 16.6445 21.5782 16.2598 24.3847C15.9961 26.3129 14.7623 27.6073 14.3292 28.0669C14.5324 27.6726 14.605 27.2565 14.5082 26.8524C14.4187 26.4702 14.1865 26.1436 13.8574 25.8919C16.3881 24.1694 14.7913 19.3573 14.7356 19.1879Z" fill="#F7B6AD"/>
<path d="M3.09082 16.1952C4.4384 15.8419 5.26582 15.1355 5.76179 14.3129C6.27711 13.9524 6.65211 13.5315 6.56017 13.2218C6.5384 13.1516 6.48034 13.0476 6.29647 12.9508C6.6763 11.2863 6.22388 9.65324 6.22388 9.65324L6.2263 9.65082C6.71114 10.0528 7.08579 10.5715 7.31501 11.1581C8.07227 13.0815 7.13114 15.254 5.21259 16.0113C4.51098 16.2895 3.77792 16.3379 3.09082 16.1976V16.1952Z" fill="#EF9D26"/>
<path d="M19.5608 13.7107C19.3657 13.7001 19.1708 13.7364 18.9927 13.8167C18.775 13.9156 18.6308 14.0562 18.548 14.1566C18.5072 14.2061 18.4878 14.2698 18.4939 14.3337C18.5 14.3975 18.5313 14.4563 18.5808 14.4971C18.6303 14.5379 18.694 14.5574 18.7579 14.5513C18.8217 14.5451 18.8805 14.5139 18.9213 14.4644C18.9949 14.376 19.0875 14.3054 19.1921 14.2577C19.2995 14.2093 19.417 14.1874 19.5346 14.1939C19.5985 14.1964 19.6607 14.1739 19.7083 14.1313C19.7558 14.0886 19.7849 14.0292 19.7894 13.9655C19.7911 13.9337 19.7866 13.902 19.776 13.872C19.7655 13.842 19.7491 13.8144 19.7279 13.7907C19.7067 13.7671 19.681 13.7478 19.6523 13.7341C19.6236 13.7204 19.5925 13.7124 19.5608 13.7107ZM17.5832 13.8165C17.4053 13.7365 17.2109 13.7002 17.0161 13.7107C16.9844 13.7124 16.9533 13.7204 16.9246 13.7341C16.8959 13.7478 16.8702 13.7671 16.849 13.7907C16.8278 13.8144 16.8114 13.842 16.8008 13.872C16.7903 13.902 16.7857 13.9337 16.7875 13.9655C16.7947 14.0988 16.9118 14.1982 17.0422 14.1939C17.1595 14.1872 17.2767 14.209 17.3838 14.2573C17.5329 14.3248 17.6197 14.4218 17.65 14.46C17.6696 14.4849 17.694 14.5058 17.7217 14.5213C17.7494 14.5368 17.7799 14.5467 17.8115 14.5504C17.843 14.5542 17.875 14.5516 17.9056 14.543C17.9361 14.5344 17.9647 14.5198 17.9896 14.5002C18.0146 14.4805 18.0354 14.4561 18.0509 14.4284C18.0664 14.4007 18.0763 14.3702 18.0801 14.3386C18.0838 14.3071 18.0813 14.2751 18.0727 14.2446C18.064 14.214 18.0495 14.1854 18.0298 14.1605C17.9101 14.0123 17.7571 13.8944 17.5832 13.8165Z" fill="#524956"/>
<path d="M13.9433 17.3751C13.7396 17.4888 13.3651 17.752 13.1451 18.2364C13.0415 18.4605 12.9845 18.7033 12.9775 18.9501C12.9764 18.9818 12.9816 19.0135 12.9927 19.0432C13.0039 19.073 13.0208 19.1002 13.0425 19.1234C13.0642 19.1466 13.0903 19.1653 13.1192 19.1784C13.1482 19.1915 13.1794 19.1988 13.2112 19.1998L13.2194 19.2C13.2821 19.1999 13.3424 19.1755 13.3874 19.1318C13.4325 19.0882 13.4588 19.0287 13.4609 18.9661C13.466 18.7836 13.5081 18.6041 13.5847 18.4384C13.7485 18.0779 14.0275 17.8819 14.1792 17.7975C14.2074 17.7823 14.2323 17.7616 14.2525 17.7367C14.2726 17.7117 14.2876 17.683 14.2966 17.6522C14.3056 17.6214 14.3083 17.5892 14.3047 17.5573C14.3011 17.5254 14.2912 17.4946 14.2756 17.4666C14.2599 17.4386 14.2389 17.414 14.2136 17.3942C14.1884 17.3744 14.1595 17.3598 14.1286 17.3513C14.0977 17.3428 14.0654 17.3405 14.0335 17.3446C14.0017 17.3487 13.9711 17.359 13.9433 17.3751ZM5.21667 20.1288C4.80151 19.7976 4.34885 19.7306 4.11611 19.7204C4.08437 19.719 4.05266 19.7238 4.02279 19.7346C3.99292 19.7455 3.96547 19.7621 3.94202 19.7835C3.89465 19.8268 3.86641 19.8871 3.86353 19.9512C3.86064 20.0153 3.88333 20.0779 3.92662 20.1253C3.9699 20.1727 4.03023 20.2009 4.09433 20.2038C4.26853 20.2115 4.60675 20.2611 4.91425 20.5065C5.05653 20.6217 5.17502 20.7635 5.26312 20.924C5.2944 20.98 5.34658 21.0213 5.40825 21.0389C5.46992 21.0565 5.53605 21.049 5.59216 21.0179C5.64821 20.9868 5.68962 20.9347 5.70726 20.873C5.72491 20.8113 5.71736 20.7452 5.68627 20.6891C5.56772 20.4736 5.4082 20.2832 5.21667 20.1288Z" fill="#F7B6AD"/>
<path d="M10.1226 27.0215C10.1162 26.9897 10.1034 26.9595 10.0851 26.9328C10.0668 26.906 10.0432 26.8832 10.0159 26.8657C9.98859 26.8482 9.95801 26.8364 9.92602 26.8309C9.89403 26.8255 9.86127 26.8266 9.82969 26.834C9.79812 26.8415 9.76837 26.8553 9.74222 26.8745C9.71607 26.8937 9.69406 26.918 9.67748 26.9459C9.66091 26.9738 9.65012 27.0047 9.64575 27.0369C9.64139 27.0691 9.64354 27.1018 9.65207 27.1331L9.98086 28.5194C9.98718 28.5513 9.99986 28.5816 10.0182 28.6084C10.0364 28.6353 10.06 28.6583 10.0873 28.6758C10.1147 28.6934 10.1453 28.7053 10.1773 28.7108C10.2094 28.7163 10.2422 28.7153 10.2739 28.7078C10.3055 28.7003 10.3353 28.6865 10.3615 28.6673C10.3877 28.648 10.4098 28.6236 10.4263 28.5957C10.4429 28.5677 10.4537 28.5367 10.458 28.5044C10.4623 28.4722 10.4601 28.4394 10.4514 28.4081L10.1226 27.0215ZM12.3337 26.4944C12.3264 26.4634 12.3131 26.4343 12.2945 26.4085C12.2759 26.3827 12.2525 26.3609 12.2254 26.3442C12.1984 26.3275 12.1683 26.3164 12.1369 26.3113C12.1056 26.3063 12.0735 26.3075 12.0426 26.3148C12.0117 26.3221 11.9825 26.3354 11.9568 26.354C11.931 26.3726 11.9092 26.3961 11.8925 26.4231C11.8758 26.4502 11.8646 26.4802 11.8596 26.5116C11.8545 26.5429 11.8557 26.575 11.8631 26.6059L12.1897 27.9823C12.1917 27.9907 12.1967 28.0067 12.1997 28.0147C12.216 28.0611 12.2464 28.1013 12.2867 28.1296C12.3269 28.1579 12.375 28.173 12.4242 28.1727C12.4517 28.1727 12.4796 28.1678 12.5074 28.1582C12.6259 28.1158 12.6903 27.9876 12.6598 27.8676L12.3337 26.4944Z" fill="#BA6A7E"/>
<path d="M3.85987 13.4453C3.79597 13.4399 3.73251 13.46 3.68337 13.5012C3.63423 13.5424 3.6034 13.6014 3.59762 13.6653L3.54197 14.2991C3.53915 14.3308 3.54259 14.3626 3.55211 14.3929C3.56163 14.4233 3.57704 14.4514 3.59744 14.4757C3.61785 14.5001 3.64286 14.5201 3.67103 14.5348C3.69921 14.5494 3.73 14.5584 3.76165 14.5611C3.76891 14.5616 3.77617 14.5621 3.78318 14.5621C3.84365 14.562 3.9019 14.5393 3.94646 14.4984C3.99102 14.4576 4.01865 14.4015 4.02391 14.3412L4.07955 13.7074C4.08512 13.6435 4.06512 13.58 4.02393 13.5309C3.98274 13.4818 3.92373 13.451 3.85987 13.4453ZM4.79399 13.1923C4.77056 13.1701 4.74295 13.1529 4.71276 13.1415C4.68258 13.1302 4.65043 13.125 4.61821 13.1263C4.58599 13.1276 4.55435 13.1353 4.52515 13.1489C4.49595 13.1626 4.46978 13.182 4.44817 13.2059C4.42656 13.2298 4.40995 13.2578 4.39932 13.2883C4.38869 13.3187 4.38426 13.351 4.38627 13.3832C4.38829 13.4153 4.39671 13.4468 4.41106 13.4757C4.4254 13.5045 4.44537 13.5303 4.46979 13.5513L4.94157 13.9771C4.96509 13.9985 4.99261 14.015 5.02255 14.0258C5.05248 14.0365 5.08425 14.0411 5.116 14.0395C5.14776 14.0379 5.17888 14.03 5.20757 14.0163C5.23626 14.0026 5.26196 13.9834 5.28318 13.9597C5.32616 13.9121 5.34846 13.8493 5.3452 13.7853C5.34193 13.7212 5.31336 13.6611 5.26576 13.6181L4.79399 13.1923Z" fill="#E28B50"/>
</g>
<defs>
<clipPath id="clip0_56_1581">
<rect width="30" height="30" fill="white"/>
</clipPath>
</defs>
</svg>
