<svg width="30" height="30" viewBox="0 0 30 30" fill="none" xmlns="http://www.w3.org/2000/svg">
<path d="M15 5.75941C15.4854 5.75941 15.8789 5.3659 15.8789 4.88051V0.878906C15.8789 0.393516 15.4854 0 15 0C14.5146 0 14.1211 0.393516 14.1211 0.878906V4.88051C14.1211 5.3659 14.5146 5.75941 15 5.75941ZM29.1211 14.1211H25.1195C24.6341 14.1211 24.2406 14.5146 24.2406 15C24.2406 15.4854 24.6341 15.8789 25.1195 15.8789H29.1211C29.6065 15.8789 30 15.4854 30 15C30 14.5146 29.6065 14.1211 29.1211 14.1211ZM5.75941 15C5.75941 14.5146 5.3659 14.1211 4.88051 14.1211H0.878906C0.393516 14.1211 0 14.5146 0 15C0 15.4854 0.393516 15.8789 0.878906 15.8789H4.88051C5.3659 15.8789 5.75941 15.4854 5.75941 15ZM23.1987 7.7291C23.4236 7.7291 23.6486 7.64326 23.8201 7.47164L25.9795 5.31234C26.3227 4.96916 26.3227 4.41264 25.9795 4.06939C25.6363 3.72615 25.0798 3.72615 24.7365 4.06939L22.5772 6.22869C22.2339 6.57188 22.2339 7.1284 22.5772 7.47164C22.6587 7.55338 22.7556 7.61821 22.8622 7.66239C22.9689 7.70658 23.0832 7.72925 23.1987 7.7291ZM6.17982 7.47164C6.35145 7.64326 6.57639 7.7291 6.80127 7.7291C7.02615 7.7291 7.25115 7.64332 7.42271 7.47164C7.76596 7.1284 7.76596 6.57193 7.42271 6.22869L5.26342 4.06939C4.92023 3.72615 4.36371 3.72615 4.02047 4.06939C3.67723 4.41264 3.67723 4.9691 4.02047 5.31234L6.17982 7.47164Z" fill="#F9AE00"/>
<path d="M25.8477 17.9326H21.9982C22.3875 17.0039 22.5879 16.007 22.5878 15C22.5878 10.8161 19.1839 7.41211 15 7.41211C10.816 7.41211 7.41209 10.8161 7.41209 15C7.41209 16.0113 7.61406 17.0085 8.00107 17.9326H4.15228C3.66689 17.9326 3.27338 18.3261 3.27338 18.8115C3.27338 19.2969 3.66689 19.6904 4.15228 19.6904H25.8477C26.3331 19.6904 26.7266 19.2969 26.7266 18.8115C26.7266 18.3261 26.3331 17.9326 25.8477 17.9326ZM9.1699 15C9.1699 11.7853 11.7853 9.16992 15 9.16992C18.2147 9.16992 20.83 11.7853 20.83 15C20.83 16.0346 20.5565 17.0449 20.0387 17.9326H9.96097C9.44365 17.0459 9.1699 16.0328 9.1699 15ZM20.5212 21.3641H9.47869C8.9933 21.3641 8.59978 21.7576 8.59978 22.243C8.59978 22.7284 8.9933 23.1219 9.47869 23.1219H20.5213C21.0067 23.1219 21.4002 22.7284 21.4002 22.243C21.4002 21.7576 21.0067 21.3641 20.5212 21.3641Z" fill="#F9AE00"/>
</svg>
