<svg width="75" height="75" viewBox="0 0 75 75" fill="none" xmlns="http://www.w3.org/2000/svg">
<path d="M22.4512 6.20192H16.5594C9.76825 6.20192 6.20215 9.76803 6.20215 16.5281V22.42C6.20215 29.18 9.76825 32.7462 16.5284 32.7462H22.4202C29.1803 32.7462 32.7464 29.18 32.7464 22.42V16.5281C32.7774 9.76803 29.2113 6.20192 22.4512 6.20192Z" fill="#292D32"/>
<path d="M57.8948 6.20192H52.003C45.2429 6.20192 41.6768 9.76803 41.6768 16.5281V22.42C41.6768 29.18 45.2429 32.7462 52.003 32.7462H57.8948C64.6549 32.7462 68.221 29.18 68.221 22.42V16.5281C68.221 9.76803 64.6549 6.20192 57.8948 6.20192Z" fill="#292D32"/>
<path d="M57.8948 41.6459H52.003C45.2429 41.6459 41.6768 45.212 41.6768 51.9721V57.8639C41.6768 64.624 45.2429 68.1901 52.003 68.1901H57.8948C64.6549 68.1901 68.221 64.624 68.221 57.8639V51.9721C68.221 45.212 64.6549 41.6459 57.8948 41.6459Z" fill="#292D32"/>
<path d="M22.4512 41.6459H16.5594C9.76825 41.6459 6.20215 45.212 6.20215 51.9721V57.8639C6.20215 64.655 9.76825 68.2211 16.5284 68.2211H22.4202C29.1803 68.2211 32.7464 64.655 32.7464 57.8949V52.0031C32.7774 45.212 29.2113 41.6459 22.4512 41.6459Z" fill="#292D32"/>
</svg>
