<svg width="75" height="75" viewBox="0 0 75 75" fill="none" xmlns="http://www.w3.org/2000/svg">
<path d="M42.0178 62.5154C41.2115 62.8565 40.3432 63.1666 39.413 63.4767L34.5134 65.0892C22.2026 69.0584 15.7216 65.7404 11.7214 53.4296L7.75214 41.1808C3.78291 28.87 7.06993 22.3579 19.3807 18.3887L24.1562 16.8072C23.567 18.2957 23.0709 20.0012 22.6057 21.9238L19.5668 34.9168C16.1557 49.5224 21.1483 57.5849 35.7538 61.0579L40.9634 62.2983C41.3045 62.3914 41.6767 62.4534 42.0178 62.5154Z" fill="#292D32"/>
<path d="M53.2436 9.95409L48.065 8.74472C37.7078 6.29496 31.5369 8.31058 27.9088 15.8149C26.9785 17.7065 26.2342 20.0012 25.614 22.637L22.5751 35.6301C19.5362 48.5921 23.5364 54.9801 36.4674 58.05L41.677 59.2904C43.4756 59.7245 45.1501 60.0036 46.7006 60.1277C56.3756 61.0579 61.5232 56.5305 64.128 45.3361L67.1669 32.374C70.2059 19.412 66.2366 12.993 53.2436 9.95409Z" fill="#292D32"/>
</svg>
