<svg width="30" height="30" viewBox="0 0 30 30" fill="none" xmlns="http://www.w3.org/2000/svg">
<g clip-path="url(#clip0_58_44)">
<path d="M20.3175 9.68254C18.9683 8.33333 17.0635 7.46032 15 7.46032C12.9365 7.46032 11.0317 8.29365 9.68254 9.68254C8.33333 11.0317 7.46032 12.9365 7.46032 15C7.46032 17.0635 8.33333 18.9683 9.68254 20.3175C11.0317 21.6667 12.9365 22.5397 15 22.5397C17.0635 22.5397 18.9683 21.7063 20.3175 20.3175C21.6667 18.9683 22.5397 17.0635 22.5397 15C22.5397 12.9365 21.7063 11.0317 20.3175 9.68254ZM18.8889 18.8889C17.8968 19.881 16.5079 20.4762 15 20.4762C13.4921 20.4762 12.1032 19.881 11.1111 18.8889C10.119 17.8968 9.52381 16.5079 9.52381 15C9.52381 13.4921 10.119 12.1032 11.1111 11.1111C12.1032 10.119 13.4921 9.52381 15 9.52381C16.5079 9.52381 17.8968 10.119 18.8889 11.1111C19.881 12.1032 20.4762 13.4921 20.4762 15C20.4762 16.5079 19.881 17.8968 18.8889 18.8889ZM28.9683 13.9683H25.9127C25.3571 13.9683 24.881 14.4444 24.881 15C24.881 15.5556 25.3571 16.0317 25.9127 16.0317H28.9683C29.5238 16.0317 30 15.5556 30 15C30 14.4444 29.5238 13.9683 28.9683 13.9683ZM15 24.881C14.4444 24.881 13.9683 25.3571 13.9683 25.9127V28.9683C13.9683 29.5238 14.4444 30 15 30C15.5556 30 16.0317 29.5238 16.0317 28.9683V25.9127C16.0317 25.3571 15.5556 24.881 15 24.881ZM25.5952 24.1667L23.4127 21.9841C23.0556 21.5873 22.381 21.5873 21.9841 21.9841C21.5873 22.381 21.5873 23.0159 21.9841 23.4127L24.1667 25.5952C24.5635 25.9921 25.1984 25.9921 25.5952 25.5952C25.9921 25.1984 25.9921 24.5635 25.5952 24.1667ZM15 0C14.4444 0 13.9683 0.47619 13.9683 1.03175V4.0873C13.9683 4.64286 14.4444 5.11905 15 5.11905C15.5556 5.11905 16.0317 4.64286 16.0317 4.0873V1.03175C16.0317 0.47619 15.5556 0 15 0ZM25.6349 4.40476C25.2381 4.00794 24.6032 4.00794 24.2063 4.40476L22.0238 6.5873C21.627 6.98413 21.627 7.61905 22.0238 8.01587C22.381 8.4127 23.0556 8.4127 23.4524 8.01587L25.6349 5.83333C26.0317 5.43651 26.0317 4.80159 25.6349 4.40476ZM4.0873 13.9683H1.03175C0.47619 13.9683 0 14.4444 0 15C0 15.5556 0.436508 16.0317 1.03175 16.0317H4.0873C4.64286 16.0317 5.11905 15.5556 5.11905 15C5.11905 14.4444 4.64286 13.9683 4.0873 13.9683ZM7.97619 21.9841C7.61905 21.5873 6.94444 21.5873 6.54762 21.9841L4.36508 24.1667C3.96825 24.5635 3.96825 25.1984 4.36508 25.5952C4.7619 25.9921 5.39683 25.9921 5.79365 25.5952L7.97619 23.4127C8.37302 23.0159 8.37302 22.381 7.97619 21.9841ZM7.97619 6.5873L5.79365 4.40476C5.39683 4.00794 4.7619 4.00794 4.36508 4.40476C3.96825 4.80159 3.96825 5.43651 4.36508 5.83333L6.54762 8.01587C6.94444 8.4127 7.57936 8.4127 7.97619 8.01587C8.37302 7.61905 8.37302 6.98413 7.97619 6.5873Z" fill="#2083A0"/>
</g>
<defs>
<clipPath id="clip0_58_44">
<rect width="30" height="30" fill="white"/>
</clipPath>
</defs>
</svg>
