<svg width="30" height="30" viewBox="0 0 30 30" fill="none" xmlns="http://www.w3.org/2000/svg">
<path d="M8.75418 17.936H20.9337C21.2655 17.5858 21.5664 17.2076 21.833 16.8057C22.4542 15.8698 22.8752 14.8313 23.0842 13.7194C23.2933 12.6073 23.2782 11.487 23.0393 10.3894C22.8087 9.32985 22.3803 8.33701 21.766 7.43821C21.1516 6.53955 20.3821 5.7797 19.4787 5.18015C18.5428 4.55895 17.5043 4.13791 16.3924 3.92895C15.1819 3.70134 13.967 3.7388 12.7812 4.0403C12.3734 4.14403 12.0581 4.46761 11.9652 4.87806C11.8722 5.28851 12.0175 5.71627 12.3407 5.98552C12.91 6.4594 13.347 7.07731 13.6046 7.77239C13.8691 8.48642 13.934 9.26194 13.7924 10.0154C13.5839 11.124 12.9563 12.0852 12.0249 12.7216C11.0936 13.3582 9.97015 13.594 8.86149 13.3855C8.65571 13.3468 8.45303 13.2931 8.25508 13.2248C7.85716 13.0872 7.41567 13.1845 7.11254 13.4766C6.8094 13.7687 6.69567 14.2063 6.81851 14.609C7.19806 15.854 7.86239 16.993 8.75418 17.936ZM24.3806 21.6673H5.6194C5.00119 21.6673 4.5 21.1661 4.5 20.5479C4.5 19.9297 5.00119 19.4285 5.6194 19.4285H24.3806C24.9988 19.4285 25.5 19.9297 25.5 20.5479C25.5 21.1661 24.9988 21.6673 24.3806 21.6673Z" fill="#6B32B4"/>
<path d="M21.3078 26.2179H8.69223C8.07402 26.2179 7.57283 25.7167 7.57283 25.0985C7.57283 24.4803 8.07402 23.9791 8.69223 23.9791H21.3078C21.926 23.9791 22.4272 24.4803 22.4272 25.0985C22.4272 25.7167 21.926 26.2179 21.3078 26.2179Z" fill="#6B32B4"/>
</svg>
