<svg width="20" height="20" viewBox="0 0 20 20" fill="none" xmlns="http://www.w3.org/2000/svg">
<path d="M16.4 16H3.6C2.9384 16 2.4 16.5384 2.4 17.2C2.4 17.8616 2.9384 18.4 3.6 18.4H16.4C17.0616 18.4 17.6 17.8616 17.6 17.2C17.6 16.5384 17.0616 16 16.4 16ZM18.4 3.99998C17.5176 3.99998 16.8 4.71759 16.8 5.59998C16.8 6.19279 17.128 6.70556 17.6088 6.98236C16.6832 9.17435 15.2392 10.5192 13.8896 10.3976C12.3888 10.2752 11.1648 8.50076 10.4896 5.53197C11.3552 5.31275 12 4.53275 12 3.59998C12 2.49677 11.1032 1.59998 9.99996 1.59998C8.89676 1.59998 7.99996 2.49677 7.99996 3.59998C7.99996 4.53279 8.64477 5.31279 9.51035 5.53197C8.83516 8.50076 7.61113 10.2752 6.11035 10.3976C4.76637 10.5192 3.31594 9.17435 2.39117 6.98236C2.87195 6.70556 3.19996 6.19275 3.19996 5.59998C3.19996 4.71759 2.48234 3.99998 1.59996 3.99998C0.717617 3.99998 0 4.71759 0 5.59998C0 6.4208 0.623984 7.09119 1.42078 7.18236L2.9616 15.2H17.0384L18.5792 7.18236C19.376 7.09119 20 6.4208 20 5.59998C20 4.71759 19.2824 3.99998 18.4 3.99998Z" fill="#FFD164"/>
</svg>
