<svg width="75" height="75" viewBox="0 0 75 75" fill="none" xmlns="http://www.w3.org/2000/svg">
<path d="M50.2048 6.20192H24.2187C12.9312 6.20192 6.20215 12.931 6.20215 24.2185V50.2046C6.20215 61.4921 12.9312 68.2212 24.2187 68.2212H50.2048C61.4923 68.2212 68.2214 61.4921 68.2214 50.2046V24.2185C68.2214 12.931 61.4923 6.20192 50.2048 6.20192ZM30.9168 46.2043L23.9396 53.1815C23.4745 53.6466 22.8853 53.8637 22.2961 53.8637C21.707 53.8637 21.0868 53.6466 20.6526 53.1815L18.3269 50.8558C17.3966 49.9565 17.3966 48.468 18.3269 47.5688C19.2262 46.6695 20.6836 46.6695 21.6139 47.5688L22.2961 48.251L27.6298 42.9173C28.5291 42.018 29.9865 42.018 30.9168 42.9173C31.8161 43.8166 31.8161 45.305 30.9168 46.2043ZM30.9168 24.4976L23.9396 31.4748C23.4745 31.9399 22.8853 32.157 22.2961 32.157C21.707 32.157 21.0868 31.9399 20.6526 31.4748L18.3269 29.149C17.3966 28.2498 17.3966 26.7613 18.3269 25.862C19.2262 24.9627 20.6836 24.9627 21.6139 25.862L22.2961 26.5442L27.6298 21.2106C28.5291 20.3113 29.9865 20.3113 30.9168 21.2106C31.8161 22.1099 31.8161 23.5983 30.9168 24.4976ZM54.4531 51.538H38.1731C36.9017 51.538 35.8473 50.4837 35.8473 49.2123C35.8473 47.9409 36.9017 46.8865 38.1731 46.8865H54.4531C55.7555 46.8865 56.7788 47.9409 56.7788 49.2123C56.7788 50.4837 55.7555 51.538 54.4531 51.538ZM54.4531 29.8312H38.1731C36.9017 29.8312 35.8473 28.7769 35.8473 27.5055C35.8473 26.2341 36.9017 25.1798 38.1731 25.1798H54.4531C55.7555 25.1798 56.7788 26.2341 56.7788 27.5055C56.7788 28.7769 55.7555 29.8312 54.4531 29.8312Z" fill="#292D32"/>
</svg>
