<svg width="30" height="30" viewBox="0 0 30 30" fill="none" xmlns="http://www.w3.org/2000/svg">
<path d="M24.5025 15.7938C24.34 15.7683 24.174 15.7755 24.0142 15.815C23.8545 15.8545 23.7043 15.9254 23.5723 16.0237C23.4403 16.1219 23.3292 16.2455 23.2455 16.3871C23.1619 16.5288 23.1073 16.6858 23.085 16.8488C22.8326 18.5643 22.0299 20.1514 20.7975 21.3713C19.2728 22.893 17.2067 23.7477 15.0525 23.7477C12.8984 23.7477 10.8322 22.893 9.30752 21.3713C7.78608 19.8464 6.93162 17.7803 6.93162 15.6263C6.93162 13.4722 7.78608 11.4061 9.30752 9.88127C10.495 8.69062 12.0268 7.90351 13.6863 7.63127C14.4485 7.49279 15.2272 7.46961 15.9963 7.56252C17.0837 7.69335 18.1328 8.04559 19.0788 8.59752L17.4513 8.87627C17.2875 8.90181 17.1305 8.95966 16.9893 9.04646C16.8481 9.13326 16.7255 9.24728 16.6288 9.38187C16.5321 9.51646 16.4631 9.66895 16.4259 9.83045C16.3886 9.99196 16.3839 10.1593 16.4119 10.3226C16.4399 10.486 16.5001 10.6421 16.589 10.782C16.678 10.9219 16.7938 11.0427 16.9299 11.1373C17.0659 11.232 17.2194 11.2987 17.3815 11.3335C17.5435 11.3683 17.7109 11.3705 17.8738 11.34L22.2363 10.595C22.5627 10.5382 22.8533 10.3544 23.0444 10.0838C23.2356 9.8132 23.3118 9.47789 23.2563 9.15127L22.51 4.78877C22.4874 4.62248 22.4316 4.46244 22.3458 4.3182C22.26 4.17396 22.1461 4.04846 22.0108 3.9492C21.8755 3.84994 21.7215 3.77894 21.5582 3.74044C21.3949 3.70193 21.2254 3.69672 21.06 3.72509C20.8946 3.75347 20.7366 3.81487 20.5955 3.90561C20.4543 3.99636 20.3329 4.11461 20.2384 4.2533C20.1439 4.39199 20.0783 4.54829 20.0455 4.71287C20.0127 4.87745 20.0134 5.04696 20.0475 5.21127L20.2425 6.36002C19.0202 5.67337 17.673 5.23777 16.28 5.07877C15.2695 4.95691 14.2463 4.98809 13.245 5.17127C11.0823 5.53082 9.08684 6.56 7.54002 8.11377C3.39877 12.2563 3.39877 18.995 7.54002 23.1388C8.52586 24.1259 9.69706 24.9085 10.9863 25.4416C12.2755 25.9746 13.6574 26.2477 15.0525 26.245C16.4476 26.2477 17.8295 25.9746 19.1187 25.4416C20.408 24.9085 21.5792 24.1259 22.565 23.1388C24.178 21.5395 25.2281 19.4599 25.5575 17.2125C25.6058 16.8847 25.522 16.551 25.3244 16.285C25.1268 16.0189 24.8316 15.8423 24.5038 15.7938H24.5025Z" fill="black"/>
</svg>
