<svg width="30" height="30" viewBox="0 0 30 30" fill="none" xmlns="http://www.w3.org/2000/svg">
<path d="M6.78506 8.2839C6.67675 8.2839 6.57242 8.22265 6.52312 8.11815C6.202 7.43717 6.22069 6.66415 6.57364 5.99735C6.88264 5.41291 7.40427 4.99526 8.02902 4.8219C8.01934 4.24801 8.33976 3.725 8.8825 3.46669C9.29808 3.26928 9.75103 3.27066 10.1377 3.44748C10.2156 2.96772 10.5107 2.54141 10.9697 2.29106C11.5395 1.98016 12.2009 2.02843 12.7007 2.39487C13.1791 1.91182 13.8464 1.6843 14.5392 1.77894C15.1928 1.86822 15.7468 2.22774 16.0854 2.76598C16.5155 2.42861 17.0859 2.3203 17.6328 2.49262C18.142 2.65318 18.528 3.02412 18.7076 3.4961C18.9499 3.3436 19.2296 3.2607 19.5159 3.25648C19.8945 3.24831 20.2631 3.37903 20.5519 3.62396C21.1102 3.24609 21.7663 3.33883 22.212 3.63088C22.6632 3.92621 23.013 4.50165 22.8763 5.17571C23.3739 5.47624 23.6698 6.00548 23.663 6.60999C23.6552 7.30326 23.2511 7.88908 22.609 8.13839C22.5736 8.15214 22.5359 8.15879 22.4979 8.15794C22.46 8.1571 22.4226 8.14878 22.3878 8.13347C22.3531 8.11816 22.3217 8.09615 22.2955 8.0687C22.2693 8.04125 22.2487 8.00891 22.235 7.97351C22.2212 7.93815 22.2145 7.90041 22.2153 7.86247C22.2161 7.82452 22.2244 7.7871 22.2396 7.75234C22.2549 7.71759 22.2768 7.68618 22.3043 7.65992C22.3317 7.63366 22.364 7.61305 22.3993 7.59928C22.8987 7.40551 23.0807 6.95792 23.0848 6.60342C23.0885 6.24891 22.9168 5.79718 22.4222 5.59233C22.3528 5.56366 22.2973 5.50912 22.2674 5.44025C22.2375 5.37137 22.2355 5.29357 22.262 5.22329C22.4559 4.70927 22.1855 4.30459 21.8952 4.11428C21.6049 3.92396 21.126 3.8378 20.732 4.22068C20.7032 4.24863 20.6689 4.27029 20.6313 4.28428C20.5937 4.29828 20.5536 4.3043 20.5136 4.30198C20.4735 4.29965 20.4344 4.28902 20.3987 4.27077C20.363 4.25251 20.3314 4.22703 20.3061 4.19594C20.2121 4.08037 20.093 3.98777 19.9578 3.92516C19.8227 3.86256 19.675 3.83162 19.5261 3.83469C19.3771 3.8365 19.2304 3.8724 19.0974 3.93964C18.9644 4.00687 18.8485 4.10366 18.7586 4.22258C18.7225 4.26986 18.6727 4.30486 18.6159 4.32283C18.5592 4.3408 18.4983 4.34087 18.4415 4.32303C18.3848 4.30519 18.3349 4.2703 18.2986 4.22311C18.2623 4.17592 18.2415 4.11871 18.2389 4.05926C18.2166 3.48503 17.8214 3.15855 17.4595 3.04419C17.0968 2.93 16.5861 2.97118 16.2385 3.4288C16.2074 3.46981 16.1659 3.50177 16.1183 3.52139C16.0708 3.54101 16.0188 3.54757 15.9678 3.54039C15.9169 3.53321 15.8687 3.51256 15.8284 3.48056C15.7881 3.44857 15.7571 3.40639 15.7385 3.35838C15.5253 2.80837 15.0477 2.43224 14.461 2.35196C13.8743 2.27151 13.3129 2.50577 12.9597 2.97827C12.9344 3.01227 12.9018 3.04027 12.8644 3.06028C12.827 3.08029 12.7857 3.09182 12.7433 3.09405C12.701 3.09628 12.6586 3.08915 12.6193 3.07318C12.58 3.05721 12.5447 3.03278 12.516 3.00163C12.1101 2.56252 11.5786 2.61788 11.2467 2.79868C10.9149 2.97965 10.5806 3.39644 10.7299 3.97586C10.7463 4.03968 10.7403 4.10716 10.7131 4.16714C10.6859 4.22712 10.639 4.276 10.5802 4.30572C10.5214 4.33544 10.4542 4.3442 10.3898 4.33056C10.3253 4.31692 10.2675 4.2817 10.2258 4.23071C9.89567 3.82517 9.42939 3.84697 9.13129 3.98884C8.8325 4.13071 8.52159 4.4783 8.62713 4.99059C8.63508 5.02889 8.63517 5.0684 8.6274 5.10674C8.61962 5.14507 8.60414 5.18143 8.5819 5.21361C8.55966 5.24578 8.53111 5.27311 8.49799 5.29393C8.46488 5.31474 8.42788 5.32862 8.38924 5.33471C8.11381 5.37711 7.85221 5.48366 7.62555 5.64577C7.39888 5.80788 7.2135 6.021 7.08437 6.26795C6.81758 6.77228 6.80374 7.35672 7.04648 7.87143C7.0673 7.91549 7.07665 7.96409 7.07366 8.01272C7.07066 8.06136 7.05543 8.10845 7.02936 8.14962C7.0033 8.19078 6.96725 8.2247 6.92457 8.2482C6.88189 8.27171 6.83396 8.28405 6.78523 8.28407L6.78506 8.2839Z" fill="#F9AE00"/>
<path d="M10.6221 6.11498C10.5492 6.11492 10.479 6.08731 10.4256 6.03767C10.3722 5.98804 10.3395 5.92005 10.3341 5.84733C10.2974 5.352 10.569 4.90303 11.0261 4.70337C11.3305 4.57049 11.6594 4.57274 11.9455 4.69593C12.0931 4.36443 12.3781 4.10664 12.7448 3.99384C13.2682 3.83276 13.8193 4.00889 14.1495 4.44246C14.1919 4.50373 14.209 4.57896 14.1972 4.6525C14.1855 4.72605 14.1459 4.79225 14.0867 4.83734C14.0274 4.88244 13.953 4.90295 13.879 4.89463C13.805 4.8863 13.7371 4.84978 13.6893 4.79264C13.4689 4.50319 13.1447 4.47586 12.9146 4.54644C12.6852 4.61721 12.4327 4.82223 12.4128 5.18538C12.4097 5.24204 12.39 5.29653 12.3562 5.34207C12.3223 5.38761 12.2759 5.4222 12.2225 5.44152C12.1692 5.46085 12.1113 5.46406 12.0562 5.45076C12.001 5.43745 11.951 5.40822 11.9123 5.3667C11.7082 5.14697 11.44 5.15372 11.2576 5.23331C11.0756 5.31289 10.8882 5.50477 10.9106 5.80425C10.9136 5.84395 10.9084 5.88385 10.8952 5.92143C10.8821 5.95902 10.8614 5.99349 10.8343 6.02267C10.8072 6.05185 10.7744 6.07511 10.7379 6.091C10.7014 6.10689 10.662 6.11505 10.6221 6.11498ZM17.8034 6.25305C17.7446 6.25302 17.6871 6.2351 17.6387 6.20166C17.5903 6.16823 17.5532 6.12086 17.5323 6.06585C17.4818 5.93052 17.3969 5.81074 17.2858 5.71839C17.1748 5.62603 17.0415 5.56432 16.8992 5.53937C16.7574 5.51283 16.611 5.52377 16.4747 5.5711C16.3383 5.61844 16.2166 5.70053 16.1217 5.80927C16.0712 5.86686 15.9998 5.902 15.9233 5.90696C15.8468 5.91193 15.7715 5.88631 15.7139 5.83574C15.6563 5.78517 15.6212 5.7138 15.6162 5.63733C15.6113 5.56085 15.6369 5.48553 15.6875 5.42795C15.8478 5.24366 16.0536 5.1045 16.2843 5.02426C16.5151 4.94401 16.7628 4.92548 17.0029 4.9705C17.2436 5.01294 17.469 5.11751 17.6568 5.27385C17.8447 5.4302 17.9884 5.63289 18.0738 5.86187C18.0903 5.90562 18.0958 5.95269 18.0901 5.99907C18.0844 6.04545 18.0675 6.08975 18.0409 6.12819C18.0144 6.16663 17.9789 6.19807 17.9375 6.21981C17.8962 6.24155 17.8501 6.25296 17.8034 6.25305ZM20.9279 7.32314C20.888 7.32321 20.8485 7.31503 20.8119 7.2991C20.7754 7.28317 20.7425 7.25985 20.7154 7.23059C20.6883 7.20134 20.6675 7.16679 20.6544 7.12912C20.6413 7.09145 20.6362 7.05147 20.6393 7.01171C20.6599 6.7451 20.532 6.50651 20.2977 6.37347C20.0635 6.24025 19.7936 6.25305 19.5749 6.4072C19.5123 6.45137 19.4346 6.46884 19.3591 6.45578C19.2836 6.44272 19.2164 6.4002 19.1722 6.33757C19.128 6.27493 19.1106 6.19732 19.1236 6.1218C19.1367 6.04628 19.1792 5.97904 19.2418 5.93488C19.6419 5.65217 20.1562 5.62778 20.5839 5.87069C21.0116 6.1136 21.2536 6.56793 21.2158 7.05635C21.2036 7.20808 21.0773 7.32314 20.9279 7.32314ZM12.7485 7.36224C12.7077 7.36232 12.6673 7.35375 12.6301 7.3371C12.5928 7.32045 12.5595 7.2961 12.5324 7.26564C12.5052 7.23519 12.4848 7.19932 12.4725 7.16042C12.4603 7.12151 12.4564 7.08044 12.4611 7.03991C12.4868 6.81227 12.5702 6.59496 12.7034 6.40859C12.8367 6.22223 13.0153 6.07298 13.2224 5.97502C13.4287 5.87546 13.657 5.83025 13.8856 5.84366C14.1143 5.85708 14.3357 5.92867 14.529 6.05166C14.561 6.07195 14.5888 6.09836 14.6107 6.12938C14.6326 6.1604 14.6481 6.19543 14.6565 6.23246C14.6648 6.26949 14.6658 6.30781 14.6593 6.34521C14.6528 6.38261 14.639 6.41838 14.6188 6.45046C14.5985 6.48254 14.5721 6.51031 14.541 6.53218C14.51 6.55406 14.475 6.56961 14.438 6.57795C14.4009 6.58629 14.3626 6.58725 14.3252 6.58078C14.2878 6.57431 14.252 6.56054 14.22 6.54025C14.1093 6.46992 13.9824 6.42904 13.8515 6.42147C13.7206 6.4139 13.5899 6.4399 13.4718 6.497C13.3532 6.55297 13.2509 6.6383 13.1744 6.7449C13.098 6.85151 13.0501 6.97586 13.0352 7.10618C13.0271 7.17659 12.9934 7.24158 12.9406 7.2888C12.8877 7.33601 12.8194 7.36215 12.7485 7.36224Z" fill="#F9AE00"/>
<path d="M9.36141 27.664H20.6386L24.0174 9.62216C24.1582 8.8699 23.58 8.37352 22.945 8.21521C22.1886 8.02663 21.2277 8.29134 20.9068 9.31835C20.8883 9.37707 20.8516 9.42837 20.8019 9.46479C20.7523 9.50121 20.6924 9.52085 20.6308 9.52085C20.5692 9.52085 20.5093 9.50121 20.4597 9.46479C20.41 9.42837 20.3733 9.37707 20.3548 9.31835C20.0849 8.45674 19.3237 8.1512 18.754 8.1512C18.1835 8.1512 17.4221 8.45691 17.1529 9.31835C17.1344 9.37707 17.0977 9.42837 17.0481 9.46479C16.9984 9.50121 16.9385 9.52085 16.8769 9.52085C16.8154 9.52085 16.7554 9.50121 16.7058 9.46479C16.6562 9.42837 16.6194 9.37707 16.601 9.31835C16.3312 8.45674 15.5698 8.1512 15.0001 8.1512C14.4302 8.1512 13.6687 8.45691 13.399 9.31835C13.3806 9.37707 13.3438 9.42837 13.2942 9.46479C13.2446 9.50121 13.1846 9.52085 13.1231 9.52085C13.0615 9.52085 13.0015 9.50121 12.9519 9.46479C12.9023 9.42837 12.8656 9.37707 12.8471 9.31835C12.5772 8.45674 11.8159 8.1512 11.246 8.1512C10.6763 8.1512 9.91487 8.45691 9.64515 9.31835C9.62668 9.37707 9.58996 9.42837 9.54033 9.46479C9.4907 9.50121 9.43075 9.52085 9.36919 9.52085C9.30763 9.52085 9.24768 9.50121 9.19805 9.46479C9.14842 9.42837 9.1117 9.37707 9.09323 9.31835C8.77229 8.29151 7.81155 8.02663 7.05496 8.21521C6.41949 8.37352 5.84179 8.8699 5.9828 9.62216L9.36141 27.664ZM20.8784 28.2422H9.12126C9.05385 28.2422 8.98857 28.2186 8.93674 28.1755C8.88491 28.1324 8.84981 28.0725 8.83752 28.0062L5.4141 9.72856C5.23521 8.7718 5.852 7.91884 6.91517 7.65396C7.76328 7.44254 8.80482 7.6614 9.37403 8.55449C9.78131 7.94324 10.4649 7.57281 11.246 7.57281C12.031 7.57281 12.7165 7.94635 13.1232 8.56193C13.5298 7.94635 14.2151 7.57281 15.0001 7.57281C15.7849 7.57281 16.4704 7.94635 16.8769 8.56193C17.2835 7.94635 17.969 7.57281 18.754 7.57281C19.5353 7.57281 20.2189 7.94341 20.626 8.55449C21.1952 7.66122 22.2367 7.44254 23.0848 7.65396C24.1475 7.91867 24.7648 8.77197 24.5859 9.72856L21.163 28.006C21.1506 28.0724 21.1154 28.1324 21.0634 28.1755C21.0115 28.2186 20.9459 28.2422 20.8784 28.2422Z" fill="#F9AE00"/>
<path d="M13.3423 14.0153C13.2681 14.0151 13.1968 13.9865 13.1432 13.9353C13.0895 13.8841 13.0575 13.8143 13.0539 13.7402L12.8346 9.24601C12.8318 9.20757 12.8367 9.16896 12.849 9.13243C12.8613 9.09591 12.8808 9.06222 12.9064 9.03335C12.9319 9.00448 12.963 8.98102 12.9977 8.96433C13.0325 8.94764 13.0702 8.93808 13.1087 8.9362C13.1472 8.93431 13.1857 8.94015 13.2219 8.95337C13.2581 8.96659 13.2913 8.98692 13.3195 9.01316C13.3477 9.0394 13.3704 9.07103 13.3863 9.10618C13.4021 9.14132 13.4107 9.17928 13.4116 9.21781L13.6314 13.7118C13.6333 13.751 13.6273 13.7901 13.6136 13.8268C13.6 13.8636 13.579 13.8972 13.552 13.9255C13.525 13.9539 13.4925 13.9765 13.4564 13.992C13.4204 14.0074 13.3815 14.0153 13.3423 14.0153ZM14.0374 28.2422C13.9633 28.242 13.892 28.2134 13.8383 28.1622C13.7846 28.111 13.7526 28.0412 13.7488 27.9671L13.467 22.1928C13.4633 22.1162 13.4901 22.0412 13.5416 21.9844C13.5932 21.9276 13.6651 21.8936 13.7418 21.8898C13.8184 21.8861 13.8933 21.9129 13.9501 21.9645C14.0069 22.016 14.041 22.088 14.0447 22.1646L14.3267 27.9386C14.3286 27.9765 14.323 28.0145 14.3102 28.0502C14.2974 28.086 14.2777 28.1189 14.2522 28.1471C14.2267 28.1752 14.1958 28.1981 14.1615 28.2143C14.1271 28.2305 14.0899 28.2398 14.052 28.2417L14.0374 28.2422ZM16.6577 14.0153C16.6529 14.0153 16.648 14.0153 16.6432 14.015C16.6053 14.0131 16.5681 14.0038 16.5337 13.9876C16.4994 13.9714 16.4686 13.9485 16.4431 13.9204C16.4176 13.8923 16.3979 13.8594 16.3851 13.8236C16.3723 13.7879 16.3667 13.7499 16.3686 13.712L16.5878 9.21781C16.5916 9.14123 16.6256 9.06928 16.6824 9.01778C16.7392 8.96629 16.8142 8.93948 16.8908 8.94324C16.9674 8.947 17.0393 8.98103 17.0908 9.03785C17.1423 9.09466 17.1691 9.1696 17.1653 9.24619L16.9463 13.7402C16.9426 13.8143 16.9106 13.8842 16.8569 13.9354C16.8032 13.9866 16.7319 14.0152 16.6577 14.0153ZM15.962 28.2422L15.9475 28.2417C15.871 28.2377 15.7991 28.2036 15.7477 28.1468C15.6962 28.09 15.6694 28.0151 15.6729 27.9386L15.9553 22.1646C15.9572 22.1266 15.9665 22.0895 15.9827 22.0551C15.9989 22.0208 16.0218 21.99 16.0499 21.9645C16.0781 21.939 16.1109 21.9193 16.1467 21.9065C16.1825 21.8937 16.2204 21.8881 16.2583 21.8899C16.2963 21.8918 16.3334 21.9011 16.3678 21.9173C16.4021 21.9336 16.4329 21.9564 16.4584 21.9846C16.4839 22.0127 16.5036 22.0456 16.5164 22.0813C16.5292 22.1171 16.5348 22.155 16.533 22.193L16.2506 27.9669C16.2471 28.0411 16.2152 28.1111 16.1614 28.1623C16.1077 28.2136 16.0363 28.2422 15.962 28.2422ZM10.1818 16.0859C10.0379 16.0859 9.91314 15.9787 9.89498 15.8323L9.0825 9.26747C9.07781 9.22979 9.08058 9.19156 9.09066 9.15496C9.10075 9.11836 9.11795 9.08411 9.14128 9.05416C9.16461 9.02421 9.19361 8.99915 9.22663 8.98041C9.25965 8.96168 9.29604 8.94963 9.33372 8.94497C9.40985 8.93562 9.48657 8.95683 9.54709 9.00395C9.6076 9.05107 9.64697 9.12026 9.65656 9.19636L10.4685 15.7612C10.4736 15.8018 10.47 15.8431 10.4579 15.8822C10.4458 15.9214 10.4255 15.9575 10.3984 15.9882C10.3713 16.0189 10.338 16.0435 10.3006 16.0604C10.2633 16.0772 10.2228 16.0859 10.1818 16.0859ZM11.6858 28.2422C11.6155 28.242 11.5475 28.2162 11.4948 28.1695C11.4422 28.1229 11.4083 28.0586 11.3997 27.9887L10.5052 20.763C10.4975 20.6877 10.5196 20.6125 10.5668 20.5533C10.614 20.4942 10.6824 20.4558 10.7575 20.4466C10.8326 20.4373 10.9083 20.4578 10.9685 20.5037C11.0286 20.5496 11.0684 20.6172 11.0793 20.6921L11.9732 27.9174C11.9779 27.9551 11.9751 27.9933 11.965 28.0299C11.9549 28.0665 11.9377 28.1007 11.9144 28.1306C11.891 28.1606 11.862 28.1856 11.829 28.2043C11.796 28.2231 11.7597 28.2351 11.722 28.2398C11.7099 28.241 11.6978 28.2422 11.6858 28.2422ZM19.8183 16.0858C19.7774 16.0857 19.7369 16.077 19.6995 16.0602C19.6621 16.0434 19.6288 16.0188 19.6016 15.9881C19.5745 15.9574 19.5541 15.9214 19.5419 15.8822C19.5298 15.8431 19.526 15.8019 19.531 15.7612L20.3436 9.19636C20.3552 9.1221 20.3952 9.05526 20.4552 9.00998C20.5152 8.96471 20.5904 8.94456 20.665 8.9538C20.7396 8.96304 20.8076 9.00095 20.8548 9.0595C20.9019 9.11804 20.9244 9.19263 20.9175 9.26747L20.105 15.8323C20.0963 15.9022 20.0624 15.9666 20.0096 16.0132C19.9568 16.0599 19.8888 16.0857 19.8183 16.0858ZM18.3136 28.2422C18.3022 28.2422 18.2901 28.241 18.278 28.2398C18.2019 28.2303 18.1328 28.1911 18.0856 28.1307C18.0384 28.0703 18.0171 27.9937 18.0263 27.9176L18.9207 20.6919C18.9301 20.6158 18.9694 20.5465 19.0299 20.4993C19.0904 20.4521 19.1671 20.4309 19.2432 20.4403C19.3194 20.4497 19.3886 20.489 19.4358 20.5495C19.483 20.61 19.5042 20.6867 19.4948 20.7628L18.6003 27.9886C18.5917 28.0585 18.5578 28.1229 18.505 28.1696C18.4522 28.2163 18.3841 28.2421 18.3136 28.2422Z" fill="#F9AE00"/>
<path d="M15.0001 13.8122C12.1286 13.8122 9.79325 15.6492 9.79325 17.9074C9.79325 20.1652 12.1286 22.0024 15.0001 22.0024C17.8709 22.0024 20.2067 20.1654 20.2067 17.9072C20.2067 15.6494 17.8709 13.8123 15.0001 13.8122ZM15.0001 22.5807C11.8101 22.5807 9.21503 20.4843 9.21503 17.9072C9.21503 15.3304 11.8099 13.2341 15.0001 13.2341C18.1901 13.234 20.7851 15.3304 20.7851 17.9072C20.7851 20.4843 18.1899 22.5807 15.0001 22.5807Z" fill="#F9AE00"/>
<path d="M12.8104 17.4756L13.77 18.4509C13.834 18.5156 13.8634 18.6066 13.8501 18.6966L13.6466 20.0497L14.8705 19.4383C14.9106 19.4182 14.9549 19.4077 14.9997 19.4077C15.0446 19.4077 15.0889 19.4182 15.129 19.4383L16.3536 20.0497L16.1499 18.6967C16.1434 18.6524 16.1472 18.6071 16.1611 18.5645C16.175 18.5218 16.1986 18.483 16.23 18.451L17.1896 17.4756L15.8397 17.2507C15.7955 17.2432 15.7537 17.2256 15.7174 17.1993C15.6812 17.173 15.6515 17.1386 15.6307 17.099L15.0001 15.8847L14.3694 17.099C14.3486 17.1388 14.3188 17.1732 14.2825 17.1995C14.2461 17.2259 14.2041 17.2435 14.1598 17.2509L12.8104 17.4756ZM16.7216 20.8462C16.6768 20.8462 16.6327 20.8357 16.5927 20.8156L15.0001 20.0201L13.4073 20.8156C13.36 20.8393 13.307 20.8495 13.2542 20.8452C13.2015 20.8409 13.1509 20.8221 13.108 20.7911C13.0652 20.76 13.0318 20.7177 13.0114 20.6689C12.991 20.62 12.9845 20.5665 12.9924 20.5142L13.2568 18.7536L12.0082 17.4848C11.9711 17.447 11.945 17.3999 11.9329 17.3484C11.9208 17.2969 11.923 17.243 11.9393 17.1927C11.9556 17.1424 11.9854 17.0975 12.0255 17.063C12.0655 17.0284 12.1143 17.0055 12.1665 16.9967L13.9226 16.7041L14.7435 15.1243C14.768 15.0775 14.8048 15.0382 14.8501 15.0108C14.8953 14.9834 14.9472 14.9689 15.0001 14.9689C15.053 14.9689 15.1049 14.9834 15.1501 15.0108C15.1953 15.0382 15.2322 15.0775 15.2567 15.1243L16.0776 16.704L17.8337 16.9967C17.8859 17.0055 17.9346 17.0284 17.9747 17.063C18.0147 17.0975 18.0446 17.1424 18.0609 17.1927C18.0772 17.243 18.0794 17.2969 18.0673 17.3484C18.0551 17.3999 18.0291 17.447 17.992 17.4848L16.7432 18.7536L17.0077 20.5141C17.0141 20.5553 17.0114 20.5973 17 20.6374C16.9885 20.6775 16.9684 20.7146 16.9412 20.7461C16.914 20.7777 16.8803 20.803 16.8424 20.8203C16.8045 20.8376 16.7632 20.8464 16.7216 20.8462Z" fill="#F9AE00"/>
<path d="M9.94636 16.4704H6.9169C6.84022 16.4704 6.76669 16.4399 6.71247 16.3857C6.65825 16.3315 6.62779 16.2579 6.62779 16.1813C6.62779 16.1046 6.65825 16.031 6.71247 15.9768C6.76669 15.9226 6.84022 15.8922 6.9169 15.8922H9.94636C10.1066 15.8922 10.2353 16.0216 10.2353 16.1813C10.2353 16.3409 10.1064 16.4704 9.94636 16.4704ZM23.0831 16.4704H20.0531C19.9764 16.4704 19.9029 16.4399 19.8487 16.3857C19.7945 16.3315 19.764 16.2579 19.764 16.1813C19.764 16.1046 19.7945 16.031 19.8487 15.9768C19.9029 15.9226 19.9764 15.8922 20.0531 15.8922H23.0831C23.1598 15.8922 23.2333 15.9226 23.2875 15.9768C23.3417 16.031 23.3722 16.1046 23.3722 16.1813C23.3722 16.2579 23.3417 16.3315 23.2875 16.3857C23.2333 16.4399 23.1598 16.4704 23.0831 16.4704ZM9.94619 19.9225H7.56345C7.48677 19.9225 7.41324 19.892 7.35902 19.8378C7.3048 19.7836 7.27434 19.7101 7.27434 19.6334C7.27434 19.5567 7.3048 19.4832 7.35902 19.429C7.41324 19.3747 7.48677 19.3443 7.56345 19.3443H9.94654C10.1067 19.3443 10.2355 19.4737 10.2355 19.6334C10.2355 19.7931 10.1066 19.9225 9.94654 19.9225H9.94619ZM22.4367 19.9225H20.0533C19.9766 19.9225 19.9031 19.892 19.8489 19.8378C19.7946 19.7836 19.7642 19.7101 19.7642 19.6334C19.7642 19.5567 19.7946 19.4832 19.8489 19.429C19.9031 19.3747 19.9766 19.3443 20.0533 19.3443H22.4367C22.5134 19.3443 22.5869 19.3747 22.6411 19.429C22.6954 19.4832 22.7258 19.5567 22.7258 19.6334C22.7258 19.7101 22.6954 19.7836 22.6411 19.8378C22.5869 19.892 22.5134 19.9225 22.4367 19.9225Z" fill="#F9AE00"/>
</svg>
