<svg width="75" height="75" viewBox="0 0 75 75" fill="none" xmlns="http://www.w3.org/2000/svg">
<path d="M50.2048 6.20192H24.2187C12.9312 6.20192 6.20215 12.931 6.20215 24.2185V50.1736C6.20215 61.4921 12.9312 68.2212 24.2187 68.2212H50.1738C61.4613 68.2212 68.1904 61.4921 68.1904 50.2046V24.2185C68.2214 12.931 61.4923 6.20192 50.2048 6.20192ZM30.7308 50.2046C30.7308 52.1892 29.1183 53.8017 27.1026 53.8017C25.118 53.8017 23.5055 52.1892 23.5055 50.2046V40.0954C23.5055 38.1108 25.118 36.4983 27.1026 36.4983C29.1183 36.4983 30.7308 38.1108 30.7308 40.0954V50.2046ZM50.918 50.2046C50.918 52.1892 49.3055 53.8017 47.3209 53.8017C45.3053 53.8017 43.6928 52.1892 43.6928 50.2046V24.2185C43.6928 22.2339 45.3053 20.6214 47.3209 20.6214C49.3055 20.6214 50.918 22.2339 50.918 24.2185V50.2046Z" fill="#292D32"/>
</svg>
