<svg width="30" height="30" viewBox="0 0 30 30" fill="none" xmlns="http://www.w3.org/2000/svg">
<path fill-rule="evenodd" clip-rule="evenodd" d="M7.86603 10.3662C7.63833 10.602 7.51234 10.9177 7.51518 11.2455C7.51803 11.5732 7.64949 11.8867 7.88125 12.1185C8.11301 12.3503 8.42653 12.4817 8.75428 12.4846C9.08202 12.4874 9.39777 12.3614 9.63353 12.1337L14.9998 6.76748L20.366 12.1337C20.6018 12.3614 20.9175 12.4874 21.2453 12.4846C21.573 12.4817 21.8865 12.3503 22.1183 12.1185C22.3501 11.8867 22.4815 11.5732 22.4844 11.2455C22.4872 10.9177 22.3612 10.602 22.1335 10.3662L15.8835 4.11623C15.6491 3.88189 15.3312 3.75024 14.9998 3.75024C14.6683 3.75024 14.3504 3.88189 14.116 4.11623L7.86603 10.3662ZM22.1335 19.6337C22.3612 19.398 22.4872 19.0822 22.4844 18.7545C22.4815 18.4267 22.3501 18.1132 22.1183 17.8815C21.8865 17.6497 21.573 17.5182 21.2453 17.5154C20.9175 17.5125 20.6018 17.6385 20.366 17.8662L14.9998 23.2325L9.63353 17.8662C9.39777 17.6385 9.08202 17.5125 8.75428 17.5154C8.42653 17.5182 8.11301 17.6497 7.88125 17.8815C7.64949 18.1132 7.51803 18.4267 7.51518 18.7545C7.51234 19.0822 7.63833 19.398 7.86603 19.6337L14.116 25.8837C14.3504 26.1181 14.6683 26.2497 14.9998 26.2497C15.3312 26.2497 15.6491 26.1181 15.8835 25.8837L22.1335 19.6337Z" fill="black"/>
</svg>
